<svg id="visual" viewBox="0 0 900 600" width="900" height="600" xmlns="http://www.w3.org/2000/svg" xmlns:xlink="http://www.w3.org/1999/xlink" version="1.1"><rect x="0" y="0" width="900" height="600" fill="#002233"></rect><path d="M0 446L21.5 457.3C43 468.7 86 491.3 128.8 485C171.7 478.7 214.3 443.3 257.2 432.5C300 421.7 343 435.3 385.8 444.5C428.7 453.7 471.3 458.3 514.2 458C557 457.7 600 452.3 642.8 460C685.7 467.7 728.3 488.3 771.2 500.8C814 513.3 857 517.7 878.5 519.8L900 522L900 601L878.5 601C857 601 814 601 771.2 601C728.3 601 685.7 601 642.8 601C600 601 557 601 514.2 601C471.3 601 428.7 601 385.8 601C343 601 300 601 257.2 601C214.3 601 171.7 601 128.8 601C86 601 43 601 21.5 601L0 601Z" fill="#E38B29" stroke-linecap="round" stroke-linejoin="miter"></path></svg>